<svg viewBox="0 0 768 768" fill="none" xmlns="http://www.w3.org/2000/svg">
  <rect width="768" height="768" rx="0" fill="#111" />
  <path d="M384 160c-24 0-44 20-44 44 0 16 8 30 22 38l-120 120-120-120c14-8 22-22 22-38 0-24-20-44-44-44s-44 20-44 44 20 44 44 44c2 0 4 0 6-1l254 254 254-254c2 1 4 1 6 1 24 0 44-20 44-44s-20-44-44-44-44 20-44 44c0 16 8 30 22 38l-120 120-120-120c14-8 22-22 22-38 0-24-20-44-44-44z" fill="#fff"/>
  <path d="M249 480l-60 60s30 120 195 120 195-120 195-120l-60-60" stroke="#fff" stroke-width="32" stroke-linecap="round" fill="none"/>
  <text x="230" y="540" font-family="'Inter',sans-serif" font-weight="bold" font-size="180" fill="#fff">SS</text>
</svg> 