<svg xmlns="http://www.w3.org/2000/svg" viewBox="0 0 64 64" width="64" height="64">
  <rect width="64" height="64" fill="black"/>
  <path d="M32 10c-2.2 0-4 1.8-4 4 0 1.5 1 2.9 2.5 3.6L14 34l-12-12c1.5-0.7 2.5-2.1 2.5-3.6 0-2.2-1.8-4-4-4s-4 1.8-4 4c0 2.2 1.8 4 4 4 0.4 0 0.8 0 1.2-0.1L32 54l30.8-30.1c0.4 0.1 0.8 0.1 1.2 0.1 2.2 0 4-1.8 4-4s-1.8-4-4-4-4 1.8-4 4c0 1.5 1 2.9 2.5 3.6l-12 12-16.5-16.4C35 16.9 36 15.5 36 14c0-2.2-1.8-4-4-4z" fill="white"/>
  <text x="16" y="52" font-size="20" fill="white" font-family="Arial, Helvetica, sans-serif" font-weight="bold">SS</text>
</svg>